HIERARCHY
ROOT hip
{
  OFFSET 0 0 0
  CHANNELS 6 Xposition Yposition Zposition Zrotation Yrotation Xrotation
  JOINT abdomen
  {
    OFFSET 0 20.6881 -0.73152
    CHANNELS 3 Zrotation Xrotation Yrotation
    JOINT chest
    {
      OFFSET 0 11.7043 -0.48768
      CHANNELS 3 Zrotation Xrotation Yrotation
      JOINT neck
      {
        OFFSET 0 22.1894 -2.19456
        CHANNELS 3 Zrotation Xrotation Yrotation
        JOINT head
        {
          OFFSET -0.24384 7.07133 1.2192
          CHANNELS 3 Zrotation Xrotation Yrotation
          JOINT leftEye
          {
            OFFSET 4.14528 8.04674 8.04672
            CHANNELS 3 Zrotation Xrotation Yrotation
            End Site
            {
              OFFSET 1 0 0
            }
          }
          JOINT rightEye
          {
            OFFSET -3.6576 8.04674 8.04672
            CHANNELS 3 Zrotation Xrotation Yrotation
            End Site
            {
              OFFSET 1 0 0
            }
          }
        }
      }
      JOINT rCollar
      {
        OFFSET -2.68224 19.2634 -4.8768
        CHANNELS 3 Zrotation Xrotation Yrotation
        JOINT rShldr
        {
          OFFSET -8.77824 -1.95073 1.46304
          CHANNELS 3 Zrotation Xrotation Yrotation
          JOINT rForeArm
          {
            OFFSET -28.1742 -1.7115 0.48768
            CHANNELS 3 Zrotation Xrotation Yrotation
            JOINT rHand
            {
              OFFSET -22.5879 0.773209 7.07136
              CHANNELS 3 Zrotation Xrotation Yrotation
              JOINT rThumb1
              {
                OFFSET -1.2192 -0.487915 3.41376
                CHANNELS 3 Zrotation Xrotation Yrotation
                JOINT rThumb2
                {
                  OFFSET -3.37035 -0.52449 3.41376
                  CHANNELS 3 Zrotation Xrotation Yrotation
                  End Site
                  {
                    OFFSET -1.78271 -1.18214 1.43049
                  }
                }
              }
              JOINT rIndex1
              {
                OFFSET -7.75947 0.938293 5.60832
                CHANNELS 3 Zrotation Xrotation Yrotation
                JOINT rIndex2
                {
                  OFFSET -2.54057 -0.884171 1.56538
                  CHANNELS 3 Zrotation Xrotation Yrotation
                  End Site
                  {
                    OFFSET -1.62519 -0.234802 1.16502
                  }
                }
              }
              JOINT rMid1
              {
                OFFSET -8.24714 1.18213 3.41376
                CHANNELS 3 Zrotation Xrotation Yrotation
                JOINT rMid2
                {
                  OFFSET -3.10165 -0.590103 1.0647
                  CHANNELS 3 Zrotation Xrotation Yrotation
                  End Site
                  {
                    OFFSET -2.48547 -0.328903 0.83742
                  }
                }
              }
              JOINT rRing1
              {
                OFFSET -8.82822 0.546677 1.51678
                CHANNELS 3 Zrotation Xrotation Yrotation
                JOINT rRing2
                {
                  OFFSET -2.60934 -0.819778 -0.0198488
                  CHANNELS 3 Zrotation Xrotation Yrotation
                  End Site
                  {
                    OFFSET -2.33842 -0.294052 0.168128
                  }
                }
              }
              JOINT rPinky1
              {
                OFFSET -8.27202 -0.0477905 -0.4584
                CHANNELS 3 Zrotation Xrotation Yrotation
                JOINT rPinky2
                {
                  OFFSET -1.82734 -0.647385 -0.700984
                  CHANNELS 3 Zrotation Xrotation Yrotation
                  End Site
                  {
                    OFFSET -1.69225 -0.51767 -0.607171
                  }
                }
              }
            }
          }
        }
      }
      JOINT lCollar
      {
        OFFSET 2.68224 19.2634 -4.8768
        CHANNELS 3 Zrotation Xrotation Yrotation
        JOINT lShldr
        {
          OFFSET 8.77824 -1.95073 1.46304
          CHANNELS 3 Zrotation Xrotation Yrotation
          JOINT lForeArm
          {
            OFFSET 28.1742 -1.7115 0.48768
            CHANNELS 3 Zrotation Xrotation Yrotation
            JOINT lHand
            {
              OFFSET 22.5879 0.773209 7.07136
              CHANNELS 3 Zrotation Xrotation Yrotation
              JOINT lThumb1
              {
                OFFSET 1.2192 -0.487915 3.41376
                CHANNELS 3 Zrotation Xrotation Yrotation
                JOINT lThumb2
                {
                  OFFSET 3.37035 -0.52449 3.41376
                  CHANNELS 3 Zrotation Xrotation Yrotation
                  End Site
                  {
                    OFFSET 1.78271 -1.18214 1.43049
                  }
                }
              }
              JOINT lIndex1
              {
                OFFSET 7.75947 0.938293 5.60832
                CHANNELS 3 Zrotation Xrotation Yrotation
                JOINT lIndex2
                {
                  OFFSET 2.54057 -0.884171 1.56538
                  CHANNELS 3 Zrotation Xrotation Yrotation
                  End Site
                  {
                    OFFSET 1.62519 -0.234802 1.16502
                  }
                }
              }
              JOINT lMid1
              {
                OFFSET 8.24714 1.18213 3.41376
                CHANNELS 3 Zrotation Xrotation Yrotation
                JOINT lMid2
                {
                  OFFSET 3.10165 -0.590103 1.0647
                  CHANNELS 3 Zrotation Xrotation Yrotation
                  End Site
                  {
                    OFFSET 2.48547 -0.328903 0.83742
                  }
                }
              }
              JOINT lRing1
              {
                OFFSET 8.82822 0.546677 1.51678
                CHANNELS 3 Zrotation Xrotation Yrotation
                JOINT lRing2
                {
                  OFFSET 2.60934 -0.819778 -0.0198488
                  CHANNELS 3 Zrotation Xrotation Yrotation
                  End Site
                  {
                    OFFSET 2.33842 -0.294052 0.168128
                  }
                }
              }
              JOINT lPinky1
              {
                OFFSET 8.27202 -0.0477905 -0.4584
                CHANNELS 3 Zrotation Xrotation Yrotation
                JOINT lPinky2
                {
                  OFFSET 1.82734 -0.647385 -0.700984
                  CHANNELS 3 Zrotation Xrotation Yrotation
                  End Site
                  {
                    OFFSET 1.69225 -0.51767 -0.607171
                  }
                }
              }
            }
          }
        }
      }
    }
  }
  JOINT rButtock
  {
    OFFSET -8.77824 4.35084 1.2192
    CHANNELS 3 Zrotation Xrotation Yrotation
    JOINT rThigh
    {
      OFFSET 0 -1.70687 -2.19456
      CHANNELS 3 Zrotation Xrotation Yrotation
      JOINT rShin
      {
        OFFSET 0 -36.8199 0.73152
        CHANNELS 3 Zrotation Xrotation Yrotation
        JOINT rFoot
        {
          OFFSET 0.73152 -45.1104 -5.12064
          CHANNELS 3 Zrotation Xrotation Yrotation
          End Site
          {
            OFFSET -1.1221 -3.69964 12.103
          }
        }
      }
    }
  }
  JOINT lButtock
  {
    OFFSET 8.77824 4.35084 1.2192
    CHANNELS 3 Zrotation Xrotation Yrotation
    JOINT lThigh
    {
      OFFSET 0 -1.70687 -2.19456
      CHANNELS 3 Zrotation Xrotation Yrotation
      JOINT lShin
      {
        OFFSET 0 -36.8199 0.73152
        CHANNELS 3 Zrotation Xrotation Yrotation
        JOINT lFoot
        {
          OFFSET -0.73152 -45.1104 -5.12064
          CHANNELS 3 Zrotation Xrotation Yrotation
          End Site
          {
            OFFSET 1.1221 -3.69964 12.103
          }
        }
      }
    }
  }
}
MOTION
Frames:	5
Frame Time:	0.03333333333333333
120.66661 78.94276 -39.19725 174.76501 151.47427 -171.92082 3.9874701 -1.2277508 0.37215838 -2.1236567 -0.20993856 0.25774956 -2.6781988 10.602205 -4.9963307 0.21363433 -9.474271 -4.9860826 -0.021750096 -0.05786822 -0.07557297 0.06234436 0.032240927 0.0031533595 -0.045784403 0.073937304 0.046573218 36.719307 21.172676 31.028912 -26.073853 -30.33664 68.471176 -0.38020062 -20.80967 -2.8311281 0.015248504 -0.001854076 -0.018901238 0.05471595 -0.06956291 -0.06932807 0.119934484 0.005262234 0.06288731 7.72337 5.4897723 0.46443212 0.07482976 0.004126768 0.04757664 2.921623 0.9465504 0.09478957 0.0026248202 -0.031431023 -0.053268768 10.211728 0.75740606 0.11981037 -0.013700665 -0.06604331 0.036384523 2.265258 -0.7346405 -0.2527164 0.0008647126 0.036051497 -0.07112472 -56.403877 48.53848 -34.894043 25.630148 -21.781218 -53.412327 7.5672326 -55.41102 12.3616 0.031570252 0.05500986 -0.05235505 0.01163576 0.04817471 0.007341813 -0.011025152 -0.023088226 -0.010484287 -7.8060684 5.4490266 -0.38794577 -0.06389487 -0.060124684 -0.031194752 -2.9805324 1.0604589 -0.094725914 0.07015831 0.026840242 0.062927306 -10.326293 0.7113077 0.045683023 -0.019659765 -0.013204009 -0.007506057 -2.2866926 -0.69355863 0.22575012 0.009569282 -0.04707102 -0.009190952 -0.27900484 -25.661077 -2.1355314 -0.12366974 36.285984 1.3131028 -4.7503805 -14.137012 -10.697405 -0.059738327 -0.0027519257 -0.028402247 24.0906 -36.586067 -10.918747 1.295629 41.144894 -1.7690848 -0.41110286 3.4197707 -4.768559
120.77089 78.87311 -39.18345 172.44931 153.2322 -169.21101 3.7203739 -0.6133868 0.016255315 -1.7478205 -0.059909612 0.1603454 -2.2251408 10.300064 -5.2441096 0.21081068 -10.172985 -5.6835785 -0.019904451 -0.0625649 -0.067687474 0.051714666 0.026518568 0.0045128604 -0.06327807 0.07729279 0.050595477 40.141613 24.713205 28.88232 -25.690445 -30.22755 68.07293 -0.2637346 -20.41892 -2.9938881 0.006505755 0.004317373 -0.02078952 0.043527246 -0.06807372 -0.06971493 0.11941673 0.010248591 0.058656808 7.7045727 5.470088 0.4510121 0.07234612 0.008761425 0.043807656 2.9220824 0.9358944 0.09403249 0.001956529 -0.027113955 -0.047928955 10.211464 0.75149846 0.12137667 -0.013144218 -0.07157728 0.038345106 2.2595499 -0.7170914 -0.24495058 -0.0048825177 0.034884494 -0.0713089 -57.10803 43.727913 -33.182793 25.270912 -21.57187 -53.446 6.647092 -53.691986 11.198028 0.031425033 0.05458783 -0.050991416 0.007448961 0.05242629 0.015690064 -0.0034002601 -0.023993026 -0.011647446 -7.786577 5.4411135 -0.3857315 -0.06669156 -0.056588247 -0.03956643 -2.9725032 1.053407 -0.09979146 0.07604113 0.03409833 0.07091358 -10.302747 0.70545626 0.04860122 -0.029288156 -0.016934732 -0.009476033 -2.2687113 -0.6837947 0.22564319 0.0016169938 -0.053960253 -0.011557506 -0.9537894 -25.177706 -1.6965673 -0.3082204 35.770897 1.4217745 -4.5671263 -15.064886 -10.830481 -0.051600397 0.006551912 -0.026821004 23.455502 -34.173508 -10.420242 0.9632359 34.862183 -1.3371147 -0.51062834 5.761191 -5.6799173
120.430916 78.74969 -39.14698 170.56633 154.50383 -166.61407 3.265059 0.23371252 0.31669253 -1.2925992 -0.24627739 0.23223539 -1.6200451 9.67423 -5.380273 -0.4213231 -10.845732 -6.6725755 -0.01719991 -0.06760324 -0.06254366 0.041506737 0.021908412 0.0059358343 -0.06739775 0.07858562 0.053629175 44.1035 27.814556 26.076159 -25.481846 -29.72912 67.058136 -0.30583903 -18.990797 -2.8652444 -0.010148646 0.0065815807 -0.013704328 0.026667565 -0.06255527 -0.06557696 0.1141776 0.016795274 0.057406723 7.6838555 5.4487414 0.44092578 0.068423934 0.015543002 0.03283133 2.9128366 0.9262959 0.091421545 0.0009946462 -0.020762593 -0.040980387 10.203945 0.7422131 0.11394628 -0.012023694 -0.07471258 0.03676157 2.2477 -0.69809395 -0.23812093 -0.00825407 0.033217877 -0.07048388 -57.93672 39.72581 -31.269547 25.011602 -21.524548 -53.74766 5.881274 -52.6926 10.401808 0.027780619 0.05067445 -0.06044578 0.006312375 0.055636264 0.021569362 0.009269473 -0.024566561 -0.01591706 -7.7634563 5.4287877 -0.3883097 -0.06466599 -0.048978083 -0.04316914 -2.9576395 1.0440371 -0.10188582 0.07546174 0.03537787 0.08284667 -10.272743 0.696722 0.04681961 -0.0360013 -0.020523064 -0.01267531 -2.2460163 -0.67312497 0.22438371 -0.0025970726 -0.058036033 -0.014013439 -1.3367605 -24.717001 -0.7021192 -0.52693856 36.09106 1.5871395 -4.584716 -15.520938 -11.4939 -0.04514811 0.009224543 -0.027749162 22.225903 -31.5409 -7.164412 0.4716966 29.696678 -0.7751763 -0.48094454 6.9498186 -4.2115426
119.666176 78.78448 -39.0308 170.08179 154.89363 -165.01492 2.4239025 1.1243594 0.6058174 -0.7498865 -0.7623924 0.30349293 -1.0433357 9.012264 -5.182865 -1.486384 -11.634323 -7.530368 -0.0148876775 -0.069860615 -0.060671832 0.028819235 0.0184226 0.0087909335 -0.062290594 0.07642421 0.05431569 48.8324 30.183687 22.263765 -25.552599 -29.449154 66.49298 -0.40737656 -17.07364 -2.5248294 -0.031055082 0.0049429755 -1.6570211e-05 0.0064820624 -0.05254491 -0.055564225 0.10148892 0.018665893 0.05816466 7.6768794 5.441288 0.4379564 0.06358821 0.022867952 0.015657727 2.9023514 0.9240118 0.086347885 -0.0017460204 -0.0128781805 -0.030696336 10.211061 0.73245144 0.10156048 -0.0073593683 -0.077456504 0.034028642 2.2387643 -0.68389 -0.23427601 -0.009929147 0.03374508 -0.07122537 -59.338623 37.012695 -29.089241 24.948837 -21.72271 -54.462612 5.6795607 -52.5174 10.361151 0.023237823 0.04117318 -0.075945936 0.009743478 0.052382745 0.024337618 0.027097119 -0.024190674 -0.02202613 -7.7589903 5.4231377 -0.39573976 -0.057705972 -0.040946316 -0.04167472 -2.950021 1.0324942 -0.09717091 0.06914728 0.028028533 0.09371932 -10.2654295 0.6898992 0.035358872 -0.04123912 -0.025259612 -0.01677409 -2.228221 -0.6632863 0.22524755 -0.0016330287 -0.05991543 -0.019261852 -1.8656139 -24.938137 0.12152923 -0.7071778 37.380367 1.7153543 -4.910317 -15.649098 -12.17971 -0.03962278 0.008175789 -0.029774528 20.309992 -29.467085 -2.8538566 0.060127914 26.33834 -0.32756776 -0.25412518 6.669208 -0.6761178
118.59756 78.82625 -38.85907 171.62006 154.15532 -165.57318 1.4562656 1.9418609 0.37726948 -0.33679265 -1.2303072 0.22135302 -0.7125209 8.395279 -4.602083 -2.431132 -12.251679 -7.920947 -0.018415896 -0.06742725 -0.060346507 0.012647268 0.01471895 0.012089754 -0.051092394 0.06885445 0.051856447 54.000023 32.092976 17.533031 -25.740353 -30.011856 67.470924 -0.4194965 -15.055353 -2.1758068 -0.051878378 0.0036674913 0.017128687 -0.011865372 -0.038501374 -0.041034386 0.08410166 0.013563475 0.06363778 7.6746264 5.440728 0.441503 0.06270629 0.030419527 -0.0016892444 2.894693 0.9269968 0.0816611 -0.0059842058 -0.006093769 -0.021103095 10.221839 0.72490376 0.08740225 -0.0021776028 -0.07939649 0.030253468 2.235996 -0.6755737 -0.23645015 -0.013272177 0.03702112 -0.07531022 -60.27057 35.239285 -27.559813 25.08275 -22.093018 -55.323307 5.843853 -52.576126 10.703906 0.023928393 0.030087195 -0.093246534 0.014924389 0.04518917 0.019209906 0.045675233 -0.022051144 -0.026691737 -7.764196 5.421604 -0.40276054 -0.05027563 -0.0329352 -0.03519559 -2.9475973 1.0181997 -0.088644005 0.058478154 0.015467976 0.09844784 -10.270733 0.6860634 0.014460844 -0.047074474 -0.03169109 -0.020602224 -2.2157214 -0.65677917 0.22420824 0.005541471 -0.05734944 -0.024759488 -2.711818 -26.052595 0.57381964 -0.80293083 39.557045 1.7589992 -5.650206 -15.776003 -13.414925 -0.03746588 0.0023547076 -0.032707024 18.041538 -27.909199 0.6345059 -0.2139395 24.945843 -0.030590547 0.04024219 5.855714 3.3281236
